<svg version="1.1" xmlns="http://www.w3.org/2000/svg" width="108" height="49">
<path d="M0 0 C35.64 0 71.28 0 108 0 C108 1.32 108 2.64 108 4 C72.36 4 36.72 4 0 4 C0 2.68 0 1.36 0 0 Z " fill="#FFFFFF" transform="translate(0,25)"/>
<path d="M0 0 C35.64 0 71.28 0 108 0 C108 1.32 108 2.64 108 4 C72.36 4 36.72 4 0 4 C0 2.68 0 1.36 0 0 Z " fill="#FFFFFF" transform="translate(0,1)"/>
<path d="M0 0 C35.64 0 71.28 0 108 0 C108 0.99 108 1.98 108 3 C72.36 3 36.72 3 0 3 C0 2.01 0 1.02 0 0 Z " fill="#FFFFFF" transform="translate(0,46)"/>
</svg>
